<svg width="13" height="13" viewBox="0 0 13 13" fill="none" xmlns="http://www.w3.org/2000/svg">
<path d="M12.75 5.65381C12.8125 5.34131 12.5625 4.96631 12.25 4.96631L8.6875 4.46631L7.0625 1.21631C7 1.09131 6.9375 1.02881 6.8125 0.966308C6.5 0.778808 6.125 0.903808 5.9375 1.21631L4.375 4.46631L0.8125 4.96631C0.625 4.96631 0.5 5.02881 0.4375 5.15381C0.1875 5.40381 0.1875 5.77881 0.4375 6.02881L3 8.52881L2.375 12.0913C2.375 12.2163 2.375 12.3413 2.4375 12.4663C2.625 12.7788 3 12.9038 3.3125 12.7163L6.5 11.0288L9.6875 12.7163C9.75 12.7788 9.875 12.7788 10 12.7788C10.0625 12.7788 10.0625 12.7788 10.125 12.7788C10.4375 12.7163 10.6875 12.4038 10.625 12.0288L10 8.46631L12.5625 5.96631C12.6875 5.90381 12.75 5.77881 12.75 5.65381Z" fill="#FFD600"/>
</svg>
